<?xml version="1.0" encoding="UTF-8"?>

<svg version="1.2" baseProfile="tiny" width="42mm" height="42mm" viewBox="0 0 4200 4200" preserveAspectRatio="xMidYMid" fill-rule="evenodd" stroke-width="28.222" stroke-linejoin="round" xmlns="http://www.w3.org/2000/svg" xmlns:ooo="http://xml.openoffice.org/svg/export" xmlns:xlink="http://www.w3.org/1999/xlink" xmlns:presentation="http://sun.com/xmlns/staroffice/presentation" xmlns:smil="http://www.w3.org/2001/SMIL20/" xmlns:anim="urn:oasis:names:tc:opendocument:xmlns:animation:1.0" xml:space="preserve">
 <defs class="ClipPathGroup">
  <clipPath id="presentation_clip_path" clipPathUnits="userSpaceOnUse">
   <rect x="0" y="0" width="4200" height="4200"/>
  </clipPath>
 </defs>
 <defs class="TextShapeIndex">
  <g ooo:slide="id1" ooo:id-list="id3 id4 id5 id6 id7 id8 id9 id10 id11 id12"/>
 </defs>
 <defs class="EmbeddedBulletChars">
  <g id="bullet-char-template(57356)" transform="scale(0.00048828125,-0.00048828125)">
   <path d="M 580,1141 L 1163,571 580,0 -4,571 580,1141 Z"/>
  </g>
  <g id="bullet-char-template(57354)" transform="scale(0.00048828125,-0.00048828125)">
   <path d="M 8,1128 L 1137,1128 1137,0 8,0 8,1128 Z"/>
  </g>
  <g id="bullet-char-template(10146)" transform="scale(0.00048828125,-0.00048828125)">
   <path d="M 174,0 L 602,739 174,1481 1456,739 174,0 Z M 1358,739 L 309,1346 659,739 1358,739 Z"/>
  </g>
  <g id="bullet-char-template(10132)" transform="scale(0.00048828125,-0.00048828125)">
   <path d="M 2015,739 L 1276,0 717,0 1260,543 174,543 174,936 1260,936 717,1481 1274,1481 2015,739 Z"/>
  </g>
  <g id="bullet-char-template(10007)" transform="scale(0.00048828125,-0.00048828125)">
   <path d="M 0,-2 C -7,14 -16,27 -25,37 L 356,567 C 262,823 215,952 215,954 215,979 228,992 255,992 264,992 276,990 289,987 310,991 331,999 354,1012 L 381,999 492,748 772,1049 836,1024 860,1049 C 881,1039 901,1025 922,1006 886,937 835,863 770,784 769,783 710,716 594,584 L 774,223 C 774,196 753,168 711,139 L 727,119 C 717,90 699,76 672,76 641,76 570,178 457,381 L 164,-76 C 142,-110 111,-127 72,-127 30,-127 9,-110 8,-76 1,-67 -2,-52 -2,-32 -2,-23 -1,-13 0,-2 Z"/>
  </g>
  <g id="bullet-char-template(10004)" transform="scale(0.00048828125,-0.00048828125)">
   <path d="M 285,-33 C 182,-33 111,30 74,156 52,228 41,333 41,471 41,549 55,616 82,672 116,743 169,778 240,778 293,778 328,747 346,684 L 369,508 C 377,444 397,411 428,410 L 1163,1116 C 1174,1127 1196,1133 1229,1133 1271,1133 1292,1118 1292,1087 L 1292,965 C 1292,929 1282,901 1262,881 L 442,47 C 390,-6 338,-33 285,-33 Z"/>
  </g>
  <g id="bullet-char-template(9679)" transform="scale(0.00048828125,-0.00048828125)">
   <path d="M 813,0 C 632,0 489,54 383,161 276,268 223,411 223,592 223,773 276,916 383,1023 489,1130 632,1184 813,1184 992,1184 1136,1130 1245,1023 1353,916 1407,772 1407,592 1407,412 1353,268 1245,161 1136,54 992,0 813,0 Z"/>
  </g>
  <g id="bullet-char-template(8226)" transform="scale(0.00048828125,-0.00048828125)">
   <path d="M 346,457 C 273,457 209,483 155,535 101,586 74,649 74,723 74,796 101,859 155,911 209,963 273,989 346,989 419,989 480,963 531,910 582,859 608,796 608,723 608,648 583,586 532,535 482,483 420,457 346,457 Z"/>
  </g>
  <g id="bullet-char-template(8211)" transform="scale(0.00048828125,-0.00048828125)">
   <path d="M -4,459 L 1135,459 1135,606 -4,606 -4,459 Z"/>
  </g>
 </defs>
 <defs class="TextEmbeddedBitmaps"/>
 <g>
  <g id="id2" class="Master_Slide">
   <g id="bg-id2" class="Background"/>
   <g id="bo-id2" class="BackgroundObjects"/>
  </g>
 </g>
 <g class="SlideGroup">
  <g>
   <g id="id1" class="Slide" clip-path="url(#presentation_clip_path)">
    <g class="Page">
     <g class="com.sun.star.drawing.CustomShape">
      <g id="id3">
       <rect class="BoundingBox" stroke="none" fill="none" x="12" y="12" width="1178" height="1178"/>
       <path fill="rgb(246,120,40)" fill-opacity="0.761" stroke="rgb(255,255,255)" stroke-opacity="0.761" d="M 600,100 C 883,100 1100,317 1100,600 1100,883 883,1100 600,1100 317,1100 100,883 100,600 100,317 317,100 600,100 Z M 100,100 L 100,100 Z M 1101,1101 L 1101,1101 Z"/>
       <path fill="none" stroke="rgb(246,120,40)" stroke-width="176" stroke-linejoin="round" d="M 592,100 C 595,100 597,100 600,100 883,100 1100,317 1100,600 1100,883 883,1100 600,1100 444,1100 309,1034 218,928"/>
       <path fill="none" stroke="rgb(246,120,40)" stroke-width="176" stroke-linejoin="round" d="M 139,799 C 117,747 104,689 101,628"/>
       <path fill="none" stroke="rgb(246,120,40)" stroke-width="176" stroke-linejoin="round" d="M 114,477 C 128,418 152,364 184,316"/>
       <path fill="none" stroke="rgb(246,120,40)" stroke-width="176" stroke-linejoin="round" d="M 287,205 C 333,170 385,142 442,124"/>
      </g>
     </g>
     <g class="com.sun.star.drawing.CustomShape">
      <g id="id4">
       <rect class="BoundingBox" stroke="none" fill="none" x="1012" y="12" width="1178" height="1178"/>
       <path fill="rgb(246,182,0)" fill-opacity="0.761" stroke="rgb(255,255,255)" stroke-opacity="0.761" d="M 1600,100 C 1883,100 2100,317 2100,600 2100,883 1883,1100 1600,1100 1317,1100 1100,883 1100,600 1100,317 1317,100 1600,100 Z M 1100,100 L 1100,100 Z M 2101,1101 L 2101,1101 Z"/>
       <path fill="none" stroke="rgb(246,182,0)" stroke-width="176" stroke-linejoin="round" d="M 1592,100 C 1595,100 1597,100 1600,100 1883,100 2100,317 2100,600 2100,883 1883,1100 1600,1100 1444,1100 1309,1034 1218,928"/>
       <path fill="none" stroke="rgb(246,182,0)" stroke-width="176" stroke-linejoin="round" d="M 1139,799 C 1117,747 1104,689 1101,628"/>
       <path fill="none" stroke="rgb(246,182,0)" stroke-width="176" stroke-linejoin="round" d="M 1114,477 C 1128,418 1152,364 1184,316"/>
       <path fill="none" stroke="rgb(246,182,0)" stroke-width="176" stroke-linejoin="round" d="M 1287,205 C 1333,170 1385,142 1442,124"/>
      </g>
     </g>
     <g class="com.sun.star.drawing.CustomShape">
      <g id="id5">
       <rect class="BoundingBox" stroke="none" fill="none" x="2012" y="12" width="1178" height="1178"/>
       <path fill="rgb(97,153,59)" fill-opacity="0.761" stroke="rgb(255,255,255)" stroke-opacity="0.761" d="M 2600,100 C 2883,100 3100,317 3100,600 3100,883 2883,1100 2600,1100 2317,1100 2100,883 2100,600 2100,317 2317,100 2600,100 Z M 2100,100 L 2100,100 Z M 3101,1101 L 3101,1101 Z"/>
       <path fill="none" stroke="rgb(97,153,59)" stroke-width="176" stroke-linejoin="round" d="M 2592,100 C 2595,100 2597,100 2600,100 2883,100 3100,317 3100,600 3100,883 2883,1100 2600,1100 2444,1100 2309,1034 2218,928"/>
       <path fill="none" stroke="rgb(97,153,59)" stroke-width="176" stroke-linejoin="round" d="M 2139,799 C 2117,747 2104,689 2101,628"/>
       <path fill="none" stroke="rgb(97,153,59)" stroke-width="176" stroke-linejoin="round" d="M 2114,477 C 2128,418 2152,364 2184,316"/>
       <path fill="none" stroke="rgb(97,153,59)" stroke-width="176" stroke-linejoin="round" d="M 2287,205 C 2333,170 2385,142 2442,124"/>
      </g>
     </g>
     <g class="com.sun.star.drawing.CustomShape">
      <g id="id6">
       <rect class="BoundingBox" stroke="none" fill="none" x="3012" y="12" width="1178" height="1178"/>
       <path fill="rgb(0,124,176)" fill-opacity="0.761" stroke="rgb(255,255,255)" stroke-opacity="0.761" d="M 3600,100 C 3883,100 4100,317 4100,600 4100,883 3883,1100 3600,1100 3317,1100 3100,883 3100,600 3100,317 3317,100 3600,100 Z M 3100,100 L 3100,100 Z M 4101,1101 L 4101,1101 Z"/>
       <path fill="none" stroke="rgb(0,124,176)" stroke-width="176" stroke-linejoin="round" d="M 3592,100 C 3595,100 3597,100 3600,100 3883,100 4100,317 4100,600 4100,883 3883,1100 3600,1100 3444,1100 3309,1034 3218,928"/>
       <path fill="none" stroke="rgb(0,124,176)" stroke-width="176" stroke-linejoin="round" d="M 3139,799 C 3117,747 3104,689 3101,628"/>
       <path fill="none" stroke="rgb(0,124,176)" stroke-width="176" stroke-linejoin="round" d="M 3114,477 C 3128,418 3152,364 3184,316"/>
       <path fill="none" stroke="rgb(0,124,176)" stroke-width="176" stroke-linejoin="round" d="M 3287,205 C 3333,170 3385,142 3442,124"/>
      </g>
     </g>
     <g class="com.sun.star.drawing.CustomShape">
      <g id="id7">
       <rect class="BoundingBox" stroke="none" fill="none" x="12" y="1012" width="1178" height="1178"/>
       <path fill="rgb(167,41,32)" fill-opacity="0.761" stroke="rgb(255,255,255)" stroke-opacity="0.761" d="M 600,1100 C 883,1100 1100,1317 1100,1600 1100,1883 883,2100 600,2100 317,2100 100,1883 100,1600 100,1317 317,1100 600,1100 Z M 100,1100 L 100,1100 Z M 1101,2101 L 1101,2101 Z"/>
       <path fill="none" stroke="rgb(167,41,32)" stroke-width="176" stroke-linejoin="round" d="M 592,1100 C 595,1100 597,1100 600,1100 883,1100 1100,1317 1100,1600 1100,1883 883,2100 600,2100 444,2100 309,2034 218,1928"/>
       <path fill="none" stroke="rgb(167,41,32)" stroke-width="176" stroke-linejoin="round" d="M 139,1799 C 117,1747 104,1689 101,1628"/>
       <path fill="none" stroke="rgb(167,41,32)" stroke-width="176" stroke-linejoin="round" d="M 114,1477 C 128,1418 152,1364 184,1316"/>
       <path fill="none" stroke="rgb(167,41,32)" stroke-width="176" stroke-linejoin="round" d="M 287,1205 C 333,1170 385,1142 442,1124"/>
      </g>
     </g>
     <g class="com.sun.star.drawing.CustomShape">
      <g id="id8">
       <rect class="BoundingBox" stroke="none" fill="none" x="12" y="2012" width="1178" height="1178"/>
       <path fill="rgb(126,75,38)" fill-opacity="0.761" stroke="rgb(255,255,255)" stroke-opacity="0.761" d="M 600,2100 C 883,2100 1100,2317 1100,2600 1100,2883 883,3100 600,3100 317,3100 100,2883 100,2600 100,2317 317,2100 600,2100 Z M 100,2100 L 100,2100 Z M 1101,3101 L 1101,3101 Z"/>
       <path fill="none" stroke="rgb(126,75,38)" stroke-width="176" stroke-linejoin="round" d="M 592,2100 C 595,2100 597,2100 600,2100 883,2100 1100,2317 1100,2600 1100,2883 883,3100 600,3100 444,3100 309,3034 218,2928"/>
       <path fill="none" stroke="rgb(126,75,38)" stroke-width="176" stroke-linejoin="round" d="M 139,2799 C 117,2747 104,2689 101,2628"/>
       <path fill="none" stroke="rgb(126,75,38)" stroke-width="176" stroke-linejoin="round" d="M 114,2477 C 128,2418 152,2364 184,2316"/>
       <path fill="none" stroke="rgb(126,75,38)" stroke-width="176" stroke-linejoin="round" d="M 287,2205 C 333,2170 385,2142 442,2124"/>
      </g>
     </g>
     <g class="com.sun.star.drawing.CustomShape">
      <g id="id9">
       <rect class="BoundingBox" stroke="none" fill="none" x="12" y="3012" width="1178" height="1178"/>
       <path fill="rgb(14,14,16)" fill-opacity="0.761" stroke="rgb(255,255,255)" stroke-opacity="0.761" d="M 600,3100 C 883,3100 1100,3317 1100,3600 1100,3883 883,4100 600,4100 317,4100 100,3883 100,3600 100,3317 317,3100 600,3100 Z M 100,3100 L 100,3100 Z M 1101,4101 L 1101,4101 Z"/>
       <path fill="none" stroke="rgb(14,14,16)" stroke-width="176" stroke-linejoin="round" d="M 592,3100 C 595,3100 597,3100 600,3100 883,3100 1100,3317 1100,3600 1100,3883 883,4100 600,4100 444,4100 309,4034 218,3928"/>
       <path fill="none" stroke="rgb(14,14,16)" stroke-width="176" stroke-linejoin="round" d="M 139,3799 C 117,3747 104,3689 101,3628"/>
       <path fill="none" stroke="rgb(14,14,16)" stroke-width="176" stroke-linejoin="round" d="M 114,3477 C 128,3418 152,3364 184,3316"/>
       <path fill="none" stroke="rgb(14,14,16)" stroke-width="176" stroke-linejoin="round" d="M 287,3205 C 333,3170 385,3142 442,3124"/>
      </g>
     </g>
     <g class="com.sun.star.drawing.CustomShape">
      <g id="id10">
       <rect class="BoundingBox" stroke="none" fill="none" x="3012" y="1012" width="1178" height="1178"/>
       <path fill="rgb(118,104,154)" fill-opacity="0.761" stroke="rgb(255,255,255)" stroke-opacity="0.761" d="M 3600,1100 C 3883,1100 4100,1317 4100,1600 4100,1883 3883,2100 3600,2100 3317,2100 3100,1883 3100,1600 3100,1317 3317,1100 3600,1100 Z M 3100,1100 L 3100,1100 Z M 4101,2101 L 4101,2101 Z"/>
       <path fill="none" stroke="rgb(118,104,154)" stroke-width="176" stroke-linejoin="round" d="M 3592,1100 C 3595,1100 3597,1100 3600,1100 3883,1100 4100,1317 4100,1600 4100,1883 3883,2100 3600,2100 3444,2100 3309,2034 3218,1928"/>
       <path fill="none" stroke="rgb(118,104,154)" stroke-width="176" stroke-linejoin="round" d="M 3139,1799 C 3117,1747 3104,1689 3101,1628"/>
       <path fill="none" stroke="rgb(118,104,154)" stroke-width="176" stroke-linejoin="round" d="M 3114,1477 C 3128,1418 3152,1364 3184,1316"/>
       <path fill="none" stroke="rgb(118,104,154)" stroke-width="176" stroke-linejoin="round" d="M 3287,1205 C 3333,1170 3385,1142 3442,1124"/>
      </g>
     </g>
     <g class="com.sun.star.drawing.CustomShape">
      <g id="id11">
       <rect class="BoundingBox" stroke="none" fill="none" x="3012" y="2012" width="1178" height="1178"/>
       <path fill="rgb(122,136,142)" fill-opacity="0.761" stroke="rgb(255,255,255)" stroke-opacity="0.761" d="M 3600,2100 C 3883,2100 4100,2317 4100,2600 4100,2883 3883,3100 3600,3100 3317,3100 3100,2883 3100,2600 3100,2317 3317,2100 3600,2100 Z M 3100,2100 L 3100,2100 Z M 4101,3101 L 4101,3101 Z"/>
       <path fill="none" stroke="rgb(122,136,142)" stroke-width="176" stroke-linejoin="round" d="M 3592,2100 C 3595,2100 3597,2100 3600,2100 3883,2100 4100,2317 4100,2600 4100,2883 3883,3100 3600,3100 3444,3100 3309,3034 3218,2928"/>
       <path fill="none" stroke="rgb(122,136,142)" stroke-width="176" stroke-linejoin="round" d="M 3139,2799 C 3117,2747 3104,2689 3101,2628"/>
       <path fill="none" stroke="rgb(122,136,142)" stroke-width="176" stroke-linejoin="round" d="M 3114,2477 C 3128,2418 3152,2364 3184,2316"/>
       <path fill="none" stroke="rgb(122,136,142)" stroke-width="176" stroke-linejoin="round" d="M 3287,2205 C 3333,2170 3385,2142 3442,2124"/>
      </g>
     </g>
     <g class="com.sun.star.drawing.CustomShape">
      <g id="id12">
       <rect class="BoundingBox" stroke="none" fill="none" x="3012" y="3012" width="1178" height="1178"/>
       <path fill="rgb(227,217,198)" fill-opacity="0.761" stroke="rgb(255,255,255)" stroke-opacity="0.761" d="M 3600,3100 C 3883,3100 4100,3317 4100,3600 4100,3883 3883,4100 3600,4100 3317,4100 3100,3883 3100,3600 3100,3317 3317,3100 3600,3100 Z M 3100,3100 L 3100,3100 Z M 4101,4101 L 4101,4101 Z"/>
       <path fill="none" stroke="rgb(227,217,198)" stroke-width="176" stroke-linejoin="round" d="M 3592,3100 C 3595,3100 3597,3100 3600,3100 3883,3100 4100,3317 4100,3600 4100,3883 3883,4100 3600,4100 3444,4100 3309,4034 3218,3928"/>
       <path fill="none" stroke="rgb(227,217,198)" stroke-width="176" stroke-linejoin="round" d="M 3139,3799 C 3117,3747 3104,3689 3101,3628"/>
       <path fill="none" stroke="rgb(227,217,198)" stroke-width="176" stroke-linejoin="round" d="M 3114,3477 C 3128,3418 3152,3364 3184,3316"/>
       <path fill="none" stroke="rgb(227,217,198)" stroke-width="176" stroke-linejoin="round" d="M 3287,3205 C 3333,3170 3385,3142 3442,3124"/>
      </g>
     </g>
    </g>
   </g>
  </g>
 </g>
</svg>